<svg width="574" height="178" viewBox="0 0 574 178" fill="none" xmlns="http://www.w3.org/2000/svg">
<path d="M528.369 26.2752L528.403 25.5698C529.243 24.7394 540.852 24.8982 542.327 25.5331L542.338 98.7654L542.346 122.639C542.346 126.706 542.506 132.31 542.203 136.19C541.62 136.553 540.998 136.353 540.323 136.182C531.57 133.972 529.412 128.9 528.302 120.814C523.764 127.398 520.894 130.806 513.251 134.268C510.392 135.563 509.03 136.316 505.714 136.935C495.21 139.001 484.318 136.749 475.498 130.689C450.618 113.517 453.648 65.2737 483.444 55.4932C486.062 54.6334 488.761 53.5145 491.51 53.1241C501.325 51.7317 511.808 54.3801 519.913 60.0521C524.552 63.3316 525.135 65.8916 528.635 68.7506C528.274 63.757 528.265 58.59 528.341 53.5769C528.481 44.5095 528.159 35.3285 528.369 26.2752ZM501.199 125.425C536.163 124.351 538.98 67.3912 500.546 64.4878C481.866 65.82 471.855 79.439 472.67 97.5267C473.035 105.57 476.686 113.702 482.687 119.198C488.315 124.021 493.808 125.673 501.199 125.425Z" fill="white"/>
<path d="M528.369 26.2752L528.402 25.5698C529.243 24.7394 540.852 24.8982 542.326 25.5331C540.83 26.6 530.527 26.4936 528.369 26.2752Z" fill="#4C4B4C"/>
<path d="M28.9013 25.1334C34.9426 24.8131 43.3948 25.1384 49.6852 25.1081C60.7571 25.0548 72.1758 24.9489 83.2031 25.5372L84.8273 25.5671C102.536 27.3835 115.896 43.1656 110.986 60.9682C108.035 71.6658 99.6846 74.9104 91.1982 79.8644C105.407 81.0517 115.439 94.6505 114.221 108.512C111.504 139.43 77.0124 137.121 54.2257 136.822C45.9338 136.714 37.1065 137.152 28.8545 136.617C28.9548 132.717 28.8662 129.006 28.8578 124.781C28.8413 116.488 27.7935 104.536 37.937 101.521C39.078 101.182 41.2176 100.235 42.228 100.542C42.5141 103.196 42.3858 107.201 42.3838 109.956L42.4203 125.067C44.6431 125.23 47.1773 125.215 49.4321 125.23L67.9944 125.28C75.7877 125.281 82.3508 125.803 89.7041 122.739C101.826 117.688 104.407 100.308 95.3448 91.4596C85.5459 81.8924 70.9465 85.5282 58.6304 84.9262C48.6846 84.5655 32.1586 87.5968 29.6132 74.1704C28.457 68.0736 28.8794 60.1576 28.8901 53.8009L28.9013 25.1334ZM42.6167 73.8718L65.186 73.8793C74.1338 73.89 85.0781 74.8359 92.2579 68.438C95.7599 64.8506 97.8959 59.8585 97.8449 54.8185C97.7984 50.2369 95.955 45.3982 92.6383 42.197C90.6329 40.2614 88.2752 38.7274 85.6275 37.831C74.7075 34.1338 54.442 37.185 42.4727 36.1643C42.1733 46.9879 42.4424 57.9332 42.4001 68.7669C42.3936 70.4086 42.4724 72.2351 42.6167 73.8718Z" fill="white"/>
<path d="M315.151 53.5381C324.801 51.0162 337.8 53.8278 346.012 58.5983C358.745 65.9923 365.592 80.5734 364.877 94.9749C364.717 98.2394 364.925 102.251 364.196 105.43C354.871 146.128 296.807 149.756 283.805 108.83C283.514 106.782 283.301 105.526 282.79 103.504C281.854 97.1929 282.171 87.1421 284.088 81.0691C287.841 69.1879 293.875 62.7197 304.481 56.8832C308.122 55.4768 311.294 54.1611 315.151 53.5381ZM323.085 125.48C358.237 125.041 361.127 72.5937 329.33 65.1719C327.357 64.7113 325.863 64.6771 323.879 64.5039C305.411 65.3273 295.624 78.274 295.958 96.1311C296.252 111.923 305.863 126.078 323.085 125.48Z" fill="white"/>
<path d="M160.455 52.7723C172 51.8932 184.44 55.9262 192.729 64.1391C198.416 69.7733 201.98 78.9798 202.885 86.8193C203.376 91.0745 203.213 95.9925 203.213 100.299C196.819 99.8844 187.002 100.174 180.32 100.172L136.87 100.167C138.282 107.339 138.142 110.924 143.37 117.148C152.637 128.18 170.581 129.526 181.168 119.728C183.609 117.469 184.547 114.955 186.015 112.131C188.803 109.886 197.233 110.878 201.053 110.947C201.046 115.909 196.042 123.387 192.523 126.791C177.483 141.49 149.913 141.275 135.247 126.598C114.522 105.857 120.394 62.0681 151.142 54.4345C154.198 53.6758 157.335 52.7751 160.455 52.7723ZM137.095 89.1227C146.543 89.3813 157.282 89.0673 166.876 89.088C174.282 89.0337 181.689 89.1034 189.093 89.297C188.113 72.7517 177.288 63.3633 160.754 64.3768C160.418 64.3986 160.083 64.4333 159.75 64.4809C153.363 65.1573 147.243 68.6717 143.214 73.6406C138.835 79.041 138.172 82.5067 137.095 89.1227Z" fill="white"/>
<path d="M415.374 52.4656C415.612 52.4597 415.85 52.46 416.086 52.4667C425.223 52.75 434.651 56.4101 440.75 63.2139C444.766 67.6964 446.905 72.6291 447.872 78.4712C449.298 87.0858 448.948 97.3879 448.911 106.235C448.869 116.336 449.141 126.873 448.892 136.889C444.542 136.712 439.993 136.899 435.565 136.764C435.001 132.886 435.164 125.619 435.158 121.477L435.172 95.8136C435.175 92.927 435.195 90.0401 435.144 87.1538C434.811 68.0445 416.268 58.6852 399.816 67.7145C386.601 75.2538 388.706 91.4521 388.703 104.492L388.765 136.902C384.168 136.753 379.65 136.917 375.015 136.668C375.244 130.404 375.031 122.554 375.031 116.181L375.029 77.1262C375.02 72.9093 374.72 57.5476 375.396 54.027C379.846 53.9016 384.3 53.893 388.754 54.0004C388.981 57.7832 388.667 62.1879 388.866 66.2995C391.441 60.695 397.832 57.0385 403.356 54.7343C407.151 53.1521 411.302 52.7281 415.374 52.4656Z" fill="white"/>
<path d="M270.134 54.0396C274.126 53.8241 279.208 53.8649 283.253 53.9749C282.199 58.4283 280.391 61.5024 278.69 65.7154L266.736 94.6529L247.592 141.437C244.413 149.207 241.239 158.067 237.621 165.622C232.481 165.821 228.808 165.768 223.617 165.43C225.395 161.157 236.219 137.414 235.193 134.268C233.549 129.228 228.453 116.747 226.236 111.389L210.213 72.6179C208.079 67.4579 205.661 60.3001 203.269 55.5075C203.237 54.9377 203.277 54.7709 203.379 54.2335C204.436 53.5722 214.805 53.945 216.675 54.0538C217.399 54.2176 217.687 54.1417 218.052 54.8778C220.131 59.0714 221.848 64.1232 223.502 68.4724L236.847 102.857C238.06 106.022 242.409 118.217 243.959 120.657C245.73 116.758 247.035 112.169 248.621 108.128L263.633 69.1508C265.102 65.3216 267.763 56.5624 270.134 54.0396Z" fill="white"/>
<path d="M203.269 55.5075C203.237 54.9377 203.277 54.7709 203.379 54.2335C204.436 53.5722 214.805 53.945 216.675 54.0538C214.633 55.8218 206.881 54.9461 203.269 55.5075Z" fill="#4C4B4C"/>
</svg>
