<svg width="86" height="112" viewBox="0 0 86 112" fill="none" xmlns="http://www.w3.org/2000/svg">
<path d="M0.0951122 0.142197C6.13641 -0.178119 14.5886 0.147179 20.8791 0.116868C31.951 0.0635523 43.3696 -0.0423252 54.397 0.545942L56.0212 0.575917C73.7294 2.39227 87.09 18.1744 82.1799 35.977C79.2292 46.6746 70.8785 49.9192 62.3921 54.8732C76.6005 56.0604 86.6332 69.6593 85.4151 83.5206C82.6979 114.439 48.2063 112.13 25.4195 111.831C17.1276 111.723 8.3004 112.16 0.0483066 111.626C0.148644 107.726 0.0600784 104.015 0.0516702 99.7899C0.035134 91.497 -1.01264 79.5444 9.13085 76.5296C10.2718 76.1907 12.4115 75.2433 13.4218 75.5506C13.708 78.2052 13.5796 82.2102 13.5777 84.9645L13.6141 100.076C15.837 100.238 18.3712 100.223 20.626 100.239L39.1882 100.289C46.9815 100.29 53.5447 100.811 60.8979 97.7477C73.0197 92.6968 75.6005 75.3164 66.5387 66.4684C56.7398 56.9012 42.1403 60.537 29.8243 59.935C19.8785 59.5743 3.35245 62.6056 0.807007 49.1792C-0.349121 43.0824 0.0732528 35.1664 0.0839032 28.8097L0.0951122 0.142197ZM13.8106 48.8806L36.3799 48.8881C45.3276 48.8987 56.272 49.8447 63.4518 43.4468C66.9538 39.8594 69.0897 34.8673 69.0387 29.8273C68.9922 25.2457 67.1489 20.407 63.8321 17.2058C61.8267 15.2702 59.4691 13.7362 56.8213 12.8398C45.9013 9.14262 25.6359 12.1938 13.6665 11.1731C13.3672 21.9967 13.6362 32.942 13.5939 43.7756C13.5875 45.4174 13.6662 47.2439 13.8106 48.8806Z" fill="#4EAB76"/>
</svg>
